<svg height="464pt" viewBox="0 0 464 464" width="464pt" xmlns="http://www.w3.org/2000/svg"><path d="m392 456c-8.835938 0-16-7.164062-16-16v-304h32v304c0 8.835938-7.164062 16-16 16zm0 0" fill="#ffa900"/><path d="m400 453.855469c-7.652344 4.417969-17.4375 1.796875-21.855469-5.855469l-160-277.128906 27.710938-16 160 277.128906c4.417969 7.652344 1.796875 17.4375-5.855469 21.855469zm0 0" fill="#de0418"/><path d="m405.855469 448c-4.417969 7.652344-14.203125 10.273438-21.855469 5.855469l-290.984375-168 16-27.710938 290.984375 168c7.652344 4.417969 10.273438 14.203125 5.855469 21.855469zm0 0" fill="#008100"/><path d="m408 440c0 8.835938-7.164062 16-16 16h-352v-32h352c8.835938 0 16 7.164062 16 16zm0 0" fill="#36717a"/><path d="m392 0c39.765625 0 72 32.234375 72 72s-32.234375 72-72 72-72-32.234375-72-72 32.234375-72 72-72zm0 0" fill="#fbbf00"/><path d="m180 72.804688c26.785156-15.464844 61.035156-6.289063 76.5 20.496093 15.464844 26.785157 6.285156 61.035157-20.5 76.496094-26.78125 15.464844-61.03125 6.289063-76.496094-20.496094-15.464844-26.785156-6.285156-61.035156 20.496094-76.496093zm0 0" fill="#ff421d"/><path d="m38.667969 235.996094c11.042969-19.132813 35.507812-25.6875 54.640625-14.640625 19.128906 11.046875 25.683594 35.507812 14.640625 54.640625-11.046875 19.132812-35.511719 25.6875-54.640625 14.640625-19.132813-11.046875-25.6875-35.507813-14.640625-54.640625zm0 0" fill="#33bc00"/><path d="m24 416c13.253906 0 24 10.746094 24 24s-10.746094 24-24 24-24-10.746094-24-24 10.746094-24 24-24zm0 0" fill="#e6e6e6"/><path d="m24 416c13.253906 0 24 10.746094 24 24s-10.746094 24-24 24-24-10.746094-24-24 10.746094-24 24-24zm0 0" fill="#6cbbc7"/></svg>